<svg xmlns="http://www.w3.org/2000/svg" version="1.1" xmlns:xlink="http://www.w3.org/1999/xlink" xmlns:svgjs="http://svgjs.dev/svgjs" width="2000" height="974" viewBox="0 0 2000 974"><g transform="matrix(1,0,0,1,-1.2121212121212466,-0.2799264912325157)"><svg viewBox="0 0 396 193" data-background-color="#ffffff" preserveAspectRatio="xMidYMid meet" height="974" width="2000" xmlns="http://www.w3.org/2000/svg" xmlns:xlink="http://www.w3.org/1999/xlink"><g id="tight-bounds" transform="matrix(1,0,0,1,0.2400000000000091,0.05546798029556044)"><svg viewBox="0 0 395.52 192.88906403940888" height="192.88906403940888" width="395.52"><g><svg viewBox="0 0 395.52 192.88906403940888" height="192.88906403940888" width="395.52"><g><svg viewBox="0 0 395.52 192.88906403940888" height="192.88906403940888" width="395.52"><g id="textblocktransform"><svg viewBox="0 0 395.52 192.88906403940888" height="192.88906403940888" width="395.52" id="textblock"><g><svg viewBox="0 0 395.52 192.88906403940888" height="192.88906403940888" width="395.52"><g transform="matrix(1,0,0,1,0,0)"><svg width="395.52" viewBox="0.75 -33.7 71.05 34.650000000000006" height="192.88906403940888" data-palette-color="#f5f5dc"><path d="M15.3 0.95L15.3 0.95 0.75-3 2.6-10.2 3.85-9.85 3.85-24.5 9.8-24.5 2.8-26.4 4.8-33.7 23.8-28.5 21.85-21.2 11.4-24.05 11.4-8.55 8.35-8.55 14.7-6.7 21.2-8.5 23.2-1.2 15.3 0.95 15.3 0.95ZM37.05-7.35L35.1-0.05 26.3-2.45 27.85-8.25 27.85-23.5 25.3-24.2 27.25-31.5 35.4-29.25 35.4-29.2 35.4-26.25 36.85-31.5 47.3-28.65 48.1-31.5 59.55-28.35 57.9-22.35 57.9-7.8 59.55-7.35 57.6-0.05 49.75-2.2 50.35-4.35 50.35-23.05 47.1-23.95 46.65-22.35 46.65-7.8 48.3-7.35 46.35-0.05 38.5-2.2 39.1-4.35 39.1-23.05 35.4-24.05 35.4-7.8 37.05-7.35ZM71.8-7.3L69.84 0 61.05-2.4 62.59-8.2 62.59-26 61.05-26.4 63-33.7 71.8-31.3 70.15-25.1 70.15-7.75 71.8-7.3Z" opacity="1" transform="matrix(1,0,0,1,0,0)" fill="#f5f5dc" class="wordmark-text-0" data-fill-palette-color="primary" id="text-0"></path></svg></g></svg></g></svg></g></svg></g><g></g></svg></g><defs></defs></svg><rect width="395.52" height="192.88906403940888" fill="none" stroke="none" visibility="hidden"></rect></g></svg></g></svg>